<svg width="845" height="816" viewBox="0 0 845 816" fill="none" xmlns="http://www.w3.org/2000/svg">
<ellipse cx="422.5" cy="408" rx="422.5" ry="408" fill="#C99C9C"/>
<path d="M728.818 197.393L664.494 368.308L520.098 444.834L430.579 600.657L314.153 653.959L211.914 478.206L346.949 463.528L429.613 328.992L629.668 323.992L728.818 197.393Z" fill="black"/>
<path d="M698.802 144.462L651.9 320.955L515.884 411.544L442.405 575.541L331.896 640.223L212.586 475.581L345.474 447.467L414.264 305.336L612.815 280.346L698.802 144.462Z" fill="#6D1F1F"/>
<path d="M253.58 671.948L253.461 671.877H253.322C224.569 671.877 186.068 662.487 154.763 646.1C123.421 629.693 99.5 606.388 99.5 578.65C99.5 550.856 117.262 530.289 140.4 514.096C158.683 501.302 180.236 491.296 198.877 482.643C203.794 480.36 208.509 478.172 212.907 476.051C241.643 476.076 278.914 485.461 309.007 501.824C339.17 518.225 361.939 541.528 361.939 569.277C361.939 597.134 344.497 628.646 322.147 650.284C310.978 661.097 298.617 669.411 286.648 673.566C274.682 677.721 263.156 677.706 253.58 671.948Z" fill="white" stroke="#6D1F1F"/>
<path d="M339.945 498.619C338.539 499.087 342.075 500.69 343.265 501.572C349.926 506.511 356.278 511.885 362.524 517.337C367.833 521.971 373.089 526.827 378.827 530.922" stroke="#CA6161" stroke-width="2" stroke-linecap="round"/>
<path d="M370.232 476.948C373.288 476.948 376.371 477.939 379.259 478.833C384.804 480.55 390.323 482.311 395.881 483.99C401.781 485.773 407.785 487.988 414.026 487.988" stroke="#CA6161" stroke-width="2" stroke-linecap="round"/>
<path d="M399.701 439.739C399.964 438.688 405.572 439.33 405.909 439.33C414.542 439.33 423.175 439.33 431.807 439.33C438.841 439.33 445.875 439.33 452.909 439.33" stroke="#CA6161" stroke-width="2" stroke-linecap="round"/>
<path d="M418.04 406.839H479.956" stroke="#CA6161" stroke-width="2" stroke-linecap="round"/>
<path d="M477.042 334.431C478.429 339.227 480.695 343.765 482.748 348.298C485.609 354.615 488.262 361.022 491.165 367.32C493.438 372.249 496.629 377.031 498.53 382.096" stroke="#CA6161" stroke-width="2" stroke-linecap="round"/>
<path d="M527.144 321.963V365.8" stroke="#CA6161" stroke-width="2" stroke-linecap="round"/>
<path d="M560.772 316.227C561.718 317.527 561.182 320.234 561.182 321.69C561.182 326.318 561.182 330.946 561.182 335.574C561.182 341.279 561.182 346.985 561.182 352.69" stroke="#CA6161" stroke-width="2" stroke-linecap="round"/>
<path d="M598.91 305.575C599.603 305.662 600.074 314.389 600.55 315.818" stroke="#CA6161" stroke-width="2" stroke-linecap="round"/>
<path d="M628.437 280.994C631.778 280.994 635.12 280.994 638.461 280.994C641.245 280.994 644.198 280.635 646.891 281.403" stroke="#CA6161" stroke-width="2" stroke-linecap="round"/>
<path d="M645.661 253.134H662.064" stroke="#CA6161" stroke-width="2" stroke-linecap="round"/>
<path d="M661.244 220.769H664.115" stroke="#CA6161" stroke-width="2" stroke-linecap="round"/>
</svg>
