<svg width="656" height="529" viewBox="0 0 656 529" fill="none" xmlns="http://www.w3.org/2000/svg">
<path d="M553.266 37.3028L510.003 200.26L384.54 283.902L316.762 435.322L214.826 495.044L104.773 343.028L227.352 317.07L290.804 185.839L473.95 162.765L553.266 37.3028Z" fill="#6D1F1F"/>
<path d="M142.607 524.303L142.488 524.231H142.349C115.834 524.231 80.3257 515.564 51.4545 500.436C22.5469 485.288 0.5 463.78 0.5 438.193C0.5 412.549 16.8714 393.569 38.2107 378.621C55.0718 366.81 74.9487 357.574 92.1426 349.584C96.676 347.477 101.023 345.458 105.079 343.5C131.577 343.525 165.945 352.188 193.695 367.292C221.515 382.434 242.5 403.94 242.5 429.539C242.5 455.246 226.418 484.331 205.807 504.305C195.507 514.286 184.11 521.959 173.077 525.794C162.046 529.627 151.427 529.612 142.607 524.303Z" fill="white" stroke="#6D1F1F"/>
<path d="M222.251 364.299C220.954 364.732 224.216 366.211 225.313 367.026C231.458 371.586 237.317 376.548 243.078 381.582C247.975 385.861 252.824 390.344 258.117 394.125" stroke="#CA6161" stroke-width="2" stroke-linecap="round"/>
<path d="M250.189 344.29C253.007 344.29 255.851 345.205 258.515 346.031C263.63 347.616 268.721 349.241 273.847 350.792C279.29 352.438 284.828 354.483 290.585 354.483" stroke="#CA6161" stroke-width="2" stroke-linecap="round"/>
<path d="M277.371 309.934C277.614 308.964 282.786 309.557 283.097 309.557C291.06 309.557 299.023 309.557 306.987 309.557C313.475 309.557 319.963 309.557 326.451 309.557" stroke="#CA6161" stroke-width="2" stroke-linecap="round"/>
<path d="M294.288 279.557H351.399" stroke="#CA6161" stroke-width="2" stroke-linecap="round"/>
<path d="M348.712 212.703C349.991 217.131 352.081 221.321 353.975 225.507C356.614 231.339 359.061 237.255 361.739 243.069C363.835 247.621 366.779 252.036 368.533 256.713" stroke="#CA6161" stroke-width="2" stroke-linecap="round"/>
<path d="M394.927 201.191V241.666" stroke="#CA6161" stroke-width="2" stroke-linecap="round"/>
<path d="M425.945 195.895C426.818 197.095 426.323 199.594 426.323 200.939C426.323 205.212 426.323 209.485 426.323 213.758C426.323 219.026 426.323 224.294 426.323 229.562" stroke="#CA6161" stroke-width="2" stroke-linecap="round"/>
<path d="M461.125 186.06C461.764 186.14 462.198 194.198 462.638 195.517" stroke="#CA6161" stroke-width="2" stroke-linecap="round"/>
<path d="M488.36 163.364C491.442 163.364 494.525 163.364 497.607 163.364C500.175 163.364 502.899 163.032 505.383 163.742" stroke="#CA6161" stroke-width="2" stroke-linecap="round"/>
<path d="M504.248 137.641H519.379" stroke="#CA6161" stroke-width="2" stroke-linecap="round"/>
<path d="M518.622 107.757H521.27" stroke="#CA6161" stroke-width="2" stroke-linecap="round"/>
</svg>
